# xmcd
#
# Track frame offsets:
#	150
#	14890
#	28915
#	45630
#	57940
#	74360
#	85502
#	100615
#	111475
#	125807
#	136225
#	153222
#	169815
#	182922
#	199385
#	216635
#
# Disc length: 3101 seconds
#
# Revision: 1
# Processed by: cddbd v1.5.2PL0 Copyright (c) Steve Scherf et al.
# Submitted via: EasyCDDAExtractor 15.2.5.1
#
DISCID=f20c1b10
DTITLE=Ricky Skaggs - Personal Choice
DYEAR=1991
DGENRE=Country
TTITLE0=Heartbroke
TTITLE1=If That's The Way You Feel
TTITLE2=Sweet Temptation
TTITLE3=I'll Take The Blame
TTITLE4=Waiting For The Sun To Shine
TTITLE5=You May See Me Walking
TTITLE6=Window Up Above
TTITLE7=Uncle Pen
TTITLE8=Highway 40 Blues
TTITLE9=I Don't Care
TTITLE10=Can't You Hear Me Calling
TTITLE11=Your Old Love Letters
TTITLE12=Lost To A Stranger
TTITLE13=A Wound Time Can't Erase
TTITLE14=Country Boy
TTITLE15=Loves Gonna Get You Someday
EXTD=
EXTT0=
EXTT1=
EXTT2=
EXTT3=
EXTT4=
EXTT5=
EXTT6=
EXTT7=
EXTT8=
EXTT9=
EXTT10=
EXTT11=
EXTT12=
EXTT13=
EXTT14=
EXTT15=
PLAYORDER=
